PathFileType	4	(X/Y/Z)	./resultDataOpenSim/trcMotMarkerGrf/sub10/qtm-13-02.trc
DataRate	CameraRate	NumFrames	NumMarkers	Units	OrigDataRate	OrigDataStartFrame	OrigNumFrames
250.000000	250.000000	6	24	m	250.000000	352	468
Frame#	Time	L.Toe.Tip			R.Toe.Tip			L.Ankle.Lat			R.Ankle.Lat			L.Ankle.Med			R.Ankle.Med			L.Heel			R.Heel			L.Knee.Lat			R.Knee.Lat			L.Knee.Med			R.Knee.Med			L.Thigh.Upper			R.Thigh.Upper			L.ASIS			R.ASIS			V.Sacral			L.Acromium			R.Acromium			C7			L.Elbow			R.Elbow			L.Wrist.Lat			R.Wrist.Lat
		X1	Y1	Z1	X2	Y2	Z2	X3	Y3	Z3	X4	Y4	Z4	X5	Y5	Z5	X6	Y6	Z6	X7	Y7	Z7	X8	Y8	Z8	X9	Y9	Z9	X10	Y10	Z10	X11	Y11	Z11	X12	Y12	Z12	X13	Y13	Z13	X14	Y14	Z14	X15	Y15	Z15	X16	Y16	Z16	X17	Y17	Z17	X18	Y18	Z18	X19	Y19	Z19	X20	Y20	Z20	X21	Y21	Z21	X22	Y22	Z22	X23	Y23	Z23	X24	Y24	Z24

352	1.404	0.7125652	0.077786867	-0.20871093	0.85098388	0.037938909	0.023164085	0.63348963	0.18662652	-0.2365914	0.70830126	0.058782326	0.061490245	0.65718903	0.19207322	-0.15375092	0.72998525	0.082166405	-0.02346069	0.56259542	0.1983699	-0.19545308	0.65592918	0.035621804	0.01675601	0.88462274	0.46797667	-0.2203991	0.80263281	0.44786312	0.087216952	0.89979446	0.43547511	-0.10148131	0.81052077	0.45347562	-0.039995175	0.76161642	0.83004829	-0.24310033	0.78282665	0.86755566	0.13669082	0.82428598	0.94392789	-0.18147459	0.84952783	0.95857521	0.059759443	0.63932852	0.96918316	-0.045783386	0.80463596	1.43231	-0.20095614	0.78012369	1.4243059	0.11093842	0.71497131	1.4544562	-0.052730469	0.71610483	1.1144901	-0.32278764	0.65983997	1.0976369	0.17935098	0.88094112	0.92735605	-0.32056157	0.77794139	0.92405426	0.30894941
353	1.408	0.73114107	0.076528974	-0.21000047	0.85101583	0.03793335	0.023152703	0.64954474	0.18320165	-0.23849448	0.70830065	0.05897157	0.061308974	0.67166427	0.18929786	-0.1551624	0.72992014	0.082325467	-0.023549546	0.57823556	0.19320444	-0.19796239	0.6562259	0.035898321	0.016458126	0.89483192	0.47010193	-0.22059503	0.80341341	0.44802749	0.087314761	0.90985152	0.43786279	-0.10168639	0.81132044	0.45349054	-0.039891563	0.76871785	0.8312301	-0.24369429	0.78710706	0.86799222	0.13626078	0.83025176	0.94480363	-0.18132131	0.85407997	0.95910197	0.05985601	0.64524077	0.96980249	-0.045990266	0.80997175	1.4328775	-0.20119221	0.78541404	1.4247922	0.110914	0.72038121	1.4551473	-0.052926301	0.71822498	1.1158114	-0.32231737	0.66582621	1.097158	0.1800848	0.87994348	0.92591756	-0.32026907	0.7900593	0.92441305	0.30581306
354	1.412	0.74992971	0.075233545	-0.21124241	0.85104691	0.037930602	0.023145463	0.66577743	0.17969403	-0.24037207	0.7082969	0.059165813	0.061127986	0.68619865	0.186455	-0.15652181	0.72980366	0.082525977	-0.02359996	0.59404357	0.18791608	-0.20039258	0.65651082	0.0362087	0.01615327	0.90496504	0.4721847	-0.22077231	0.80414758	0.44819554	0.087394639	0.91997711	0.4401636	-0.10202223	0.81215063	0.45350658	-0.039800379	0.77588395	0.83235663	-0.24427986	0.79137002	0.86838677	0.13588062	0.8361978	0.94561966	-0.18125147	0.85862079	0.95955679	0.059939464	0.65151339	0.97039082	-0.045250101	0.81531129	1.4333692	-0.20144302	0.79069479	1.4252181	0.11088362	0.72578402	1.4557784	-0.053158809	0.7203396	1.1170897	-0.32183505	0.67190193	1.096638	0.18087934	0.87885714	0.92453806	-0.31997813	0.80212157	0.92481381	0.30263161
355	1.416	0.76887395	0.073916983	-0.21241598	0.85107602	0.037924762	0.023139433	0.68219	0.17611594	-0.24222325	0.7082903	0.059377971	0.060943503	0.70109503	0.18351273	-0.15793646	0.72974776	0.082751158	-0.023661574	0.60995769	0.1825618	-0.20274875	0.65670547	0.036512406	0.015853402	0.91492384	0.47419302	-0.2209473	0.80481838	0.44835925	0.08746541	0.93039237	0.44234978	-0.1025498	0.81300075	0.45351706	-0.039726413	0.78306252	0.83342533	-0.24487155	0.79560034	0.86873245	0.13554041	0.84217465	0.94639033	-0.1812239	0.86314921	0.9599415	0.060006351	0.65769193	0.97094041	-0.044706033	0.8206651	1.4337849	-0.20170505	0.79595931	1.4255824	0.11084721	0.73118748	1.456348	-0.053420593	0.72245117	1.1183278	-0.32135129	0.67832611	1.0961052	0.18157283	0.87769554	0.92321833	-0.3197044	0.81412297	0.92525646	0.29940814
356	1.42	0.78787887	0.072596566	-0.2134925	0.85110665	0.037912076	0.023129317	0.6987593	0.17246916	-0.24405234	0.70827671	0.059614475	0.060750371	0.71636486	0.18047545	-0.15942751	0.72980033	0.082977355	-0.023773021	0.62594175	0.17717198	-0.20501431	0.65680567	0.036788648	0.015556747	0.92462626	0.4760995	-0.2211158	0.80545073	0.44852037	0.087534779	0.94091062	0.44441731	-0.10321212	0.81384855	0.45351864	-0.039674519	0.79034979	0.83443028	-0.24539284	0.79978892	0.86903731	0.13522632	0.84812769	0.94711072	-0.18120152	0.86766751	0.96025786	0.060054618	0.66317375	0.97153319	-0.045887345	0.82603464	1.4341266	-0.2019789	0.80120086	1.4258782	0.11080695	0.73658924	1.4568511	-0.0536978	0.72456544	1.1195247	-0.32087794	0.68512821	1.0955356	0.1821263	0.87645472	0.9219594	-0.31946309	0.82606247	0.92574185	0.29615158
357	1.424	0.80691219	0.071290892	-0.2144594	0.85114121	0.037892851	0.023114675	0.7154667	0.16876107	-0.24586189	0.70825223	0.059867869	0.060542392	0.73186003	0.17735979	-0.16097798	0.72994145	0.083200093	-0.023934554	0.64203022	0.17174849	-0.20719203	0.65685048	0.037043952	0.01524987	0.93410512	0.47789507	-0.22126945	0.8060753	0.44868609	0.087606429	0.95109814	0.4463808	-0.1038419	0.81467402	0.4535134	-0.039652482	0.7978119	0.83536631	-0.24579358	0.80393427	0.86931601	0.13492855	0.85399462	0.94776692	-0.18118877	0.87217754	0.96050877	0.060085317	0.66789719	0.97218847	-0.048944627	0.83141363	1.4343937	-0.2022651	0.80642028	1.4261007	0.11076515	0.74197938	1.4572834	-0.053984826	0.72668963	1.1206781	-0.32041949	0.69218232	1.0948723	0.18260588	0.87512459	0.92075792	-0.31926044	0.83794222	0.92626716	0.29287246
